<?xml version="1.0" encoding="UTF-8"?>
<!DOCTYPE svg PUBLIC "-//W3C//DTD SVG 1.0//EN" "http://www.w3.org/TR/2001/REC-SVG-20010904/DTD/svg10.dtd">
<!-- Creator: CorelDRAW X6 -->
<svg xmlns="http://www.w3.org/2000/svg" xml:space="preserve" width="300mm" height="200mm" version="1.0" style="shape-rendering:geometricPrecision; text-rendering:geometricPrecision; image-rendering:optimizeQuality; fill-rule:evenodd; clip-rule:evenodd"
viewBox="0 0 30000 20000"
 xmlns:xlink="http://www.w3.org/1999/xlink">
 <defs>
  <style type="text/css">
   <![CDATA[
    .str0 {stroke:#E32025;stroke-width:20}
    .fil3 {fill:#393185}
    .fil2 {fill:#E31E24}
    .fil1 {fill:#393185;fill-rule:nonzero}
    .fil0 {fill:#E31E24;fill-rule:nonzero}
   ]]>
  </style>
 </defs>
 <g id="Laag_x0020_1">
  <metadata id="CorelCorpID_0Corel-Layer"/>
  <path class="fil0" d="M821 1395l1293 0 492 1921 494 -1921 1286 0 0 3157 -801 0 0 -2407 -619 2407 -726 0 -617 -2407 0 2407 -802 0 0 -3157zm4716 1609l-842 -88c32,-147 78,-262 138,-346 60,-84 145,-157 258,-219 81,-45 191,-79 332,-104 141,-24 294,-36 459,-36 263,0 474,14 634,44 160,29 293,91 400,184 75,65 134,157 177,275 43,118 65,232 65,340l0 1011c0,108 6,193 20,254 14,61 44,138 90,233l-825 0c-33,-59 -54,-103 -65,-134 -9,-30 -20,-78 -30,-144 -115,111 -229,189 -344,236 -156,64 -336,95 -542,95 -274,0 -482,-63 -624,-190 -143,-127 -213,-283 -213,-468 0,-175 51,-318 153,-430 103,-113 292,-197 567,-251 330,-66 544,-112 642,-140 98,-26 202,-61 312,-104 0,-108 -23,-183 -68,-226 -44,-44 -122,-65 -234,-65 -144,0 -252,23 -324,69 -56,37 -101,104 -136,204zm762 459c-121,43 -248,82 -380,115 -178,48 -292,95 -339,142 -50,47 -74,102 -74,163 0,70 24,127 72,171 49,44 120,66 214,66 98,0 189,-24 274,-72 84,-48 144,-106 179,-175 36,-69 54,-159 54,-269l0 -141zm1164 -2068l899 0 0 1626 658 -757 1083 0 -824 801 872 1487 -991 0 -466 -917 -332 323 0 594 -899 0 0 -3157zm5132 2231l-1767 0c16,141 54,246 115,315 85,99 196,148 334,148 87,0 170,-21 247,-64 48,-27 100,-75 154,-143l868 79c-133,230 -293,395 -480,494 -188,100 -457,150 -808,150 -305,0 -544,-42 -719,-128 -174,-86 -318,-222 -434,-408 -114,-186 -172,-405 -172,-657 0,-358 116,-648 346,-869 229,-221 548,-332 953,-332 329,0 588,50 778,149 191,99 336,242 436,431 100,188 149,434 149,736l0 99zm-895 -419c-17,-170 -63,-292 -138,-366 -74,-73 -172,-110 -293,-110 -141,0 -253,56 -337,167 -53,69 -87,172 -102,309l870 0zm1085 -943l825 0 0 373c80,-162 162,-274 246,-335 85,-61 189,-91 313,-91 131,0 273,40 428,121l-274 622c-104,-43 -186,-64 -247,-64 -115,0 -205,48 -268,142 -91,134 -137,385 -137,751l0 769 -886 0 0 -2288z"/>
  <path class="fil1" d="M14601 3561l928 -58c20,150 61,264 123,342 101,127 245,191 432,191 140,0 247,-32 322,-97 76,-66 114,-142 114,-228 0,-81 -35,-155 -107,-219 -71,-65 -238,-125 -500,-183 -429,-96 -734,-224 -917,-383 -184,-159 -276,-362 -276,-609 0,-161 47,-314 141,-458 95,-145 236,-258 426,-341 189,-82 449,-123 778,-123 405,0 713,75 925,225 212,150 338,389 379,717l-920 54c-24,-143 -76,-247 -154,-312 -79,-65 -187,-98 -325,-98 -113,0 -200,25 -257,72 -58,48 -86,107 -86,176 0,50 23,95 70,135 45,42 154,80 326,116 428,92 734,186 918,280 185,94 320,210 404,350 84,138 126,294 126,467 0,202 -56,389 -168,560 -113,170 -269,301 -471,389 -202,88 -455,132 -762,132 -538,0 -911,-104 -1118,-310 -207,-207 -324,-469 -351,-787zm3087 1913l0 -3157 824 0 0 337c114,-143 218,-239 313,-289 128,-68 270,-101 426,-101 306,0 543,116 711,351 167,234 251,525 251,869 0,382 -91,673 -274,873 -183,201 -413,301 -693,301 -135,0 -258,-23 -370,-68 -112,-47 -211,-114 -299,-205l0 1089 -889 0zm882 -2006c0,182 39,317 115,405 76,88 172,132 289,132 101,0 187,-41 256,-126 69,-85 103,-228 103,-430 0,-187 -36,-323 -107,-411 -73,-87 -160,-131 -264,-131 -112,0 -204,45 -280,133 -74,88 -112,230 -112,428zm2647 -411l-840 -88c32,-147 77,-262 137,-346 60,-85 145,-157 258,-219 80,-45 191,-79 332,-104 140,-24 293,-36 457,-36 263,0 474,14 634,44 159,29 293,91 399,184 75,65 134,157 177,275 43,118 65,232 65,340l0 1011c0,108 6,192 20,253 14,61 44,139 90,234l-824 0c-33,-59 -54,-103 -65,-134 -9,-30 -20,-78 -30,-144 -115,111 -229,189 -343,236 -156,63 -336,95 -542,95 -274,0 -481,-63 -623,-190 -142,-127 -213,-283 -213,-468 0,-175 51,-318 153,-430 103,-113 292,-197 566,-251 330,-66 544,-112 642,-140 98,-26 202,-61 311,-104 0,-108 -22,-183 -67,-226 -45,-44 -123,-65 -235,-65 -143,0 -251,23 -323,69 -56,37 -101,104 -136,204zm761 459c-121,43 -247,82 -379,115 -178,48 -292,95 -339,141 -50,48 -74,103 -74,164 0,69 24,127 72,171 49,44 120,66 213,66 98,0 190,-24 275,-72 84,-48 143,-106 179,-175 35,-69 53,-159 53,-269l0 -141zm2874 194l836 93c-46,174 -122,324 -227,452 -105,127 -239,227 -403,297 -163,71 -371,106 -623,106 -244,0 -447,-23 -609,-68 -161,-45 -301,-119 -418,-220 -116,-101 -208,-220 -274,-356 -66,-137 -99,-318 -99,-544 0,-235 40,-431 120,-588 59,-115 141,-218 243,-309 102,-91 207,-159 315,-204 172,-70 392,-105 659,-105 376,0 661,66 858,199 196,134 334,329 414,586l-827 110c-26,-98 -73,-171 -142,-221 -68,-50 -160,-75 -276,-75 -145,0 -263,52 -354,156 -90,104 -135,262 -135,473 0,189 45,331 134,429 90,98 203,146 342,146 115,0 212,-29 290,-87 79,-59 137,-149 176,-270zm3565 -31l-1765 0c16,140 54,246 115,315 85,99 196,148 333,148 87,0 170,-21 247,-64 48,-27 100,-75 154,-143l867 79c-133,230 -293,395 -480,494 -187,100 -456,150 -806,150 -305,0 -543,-43 -718,-129 -174,-85 -319,-221 -434,-407 -114,-186 -171,-405 -171,-657 0,-358 115,-648 345,-869 229,-221 547,-332 951,-332 329,0 588,50 778,149 190,99 335,242 435,431 99,188 149,434 149,736l0 99zm-894 -419c-17,-170 -63,-292 -138,-366 -74,-73 -171,-110 -293,-110 -140,0 -252,56 -336,167 -53,69 -87,172 -102,309l869 0z"/>
  <polygon class="fil1" points="821,6915 1796,6915 1796,9296 3322,9296 3322,10072 821,10072 "/>
  <path id="1" class="fil1" d="M6098 9146l-1759 0c16,141 53,246 114,315 85,99 196,148 333,148 86,0 169,-21 246,-64 48,-27 99,-75 153,-143l865 79c-133,230 -292,395 -479,494 -186,100 -455,150 -804,150 -303,0 -541,-43 -716,-128 -173,-86 -317,-222 -432,-408 -114,-186 -171,-405 -171,-657 0,-358 115,-648 344,-869 229,-221 545,-332 949,-332 328,0 586,50 775,149 190,99 335,242 434,431 99,188 148,434 148,736l0 99zm-891 -419c-16,-170 -63,-292 -137,-366 -74,-73 -171,-110 -292,-110 -140,0 -252,56 -336,167 -53,69 -86,172 -101,309l866 0z"/>
  <path id="2" class="fil1" d="M6383 6915l878 0 0 595 -878 0 0 -595zm0 869l878 0 0 2288 -878 0 0 -2288z"/>
  <path id="3" class="fil1" d="M10082 6915l0 3157 -822 0 0 -339c-115,144 -220,242 -315,293 -125,66 -266,99 -422,99 -310,0 -549,-118 -713,-356 -164,-237 -246,-526 -246,-865 0,-380 91,-670 272,-871 182,-202 412,-302 692,-302 137,0 260,22 371,68 112,46 210,115 296,207l0 -1091 887 0zm-880 2004c0,-180 -38,-314 -114,-403 -76,-89 -172,-133 -288,-133 -102,0 -187,43 -256,128 -68,85 -103,227 -103,428 0,187 35,324 107,411 70,88 158,131 263,131 112,0 204,-44 279,-131 74,-88 112,-232 112,-431z"/>
  <path id="4" class="fil1" d="M13008 9146l-1759 0c16,141 53,246 114,315 85,99 196,148 332,148 87,0 169,-21 247,-64 47,-27 99,-75 153,-143l865 79c-133,230 -292,395 -479,494 -187,100 -455,150 -804,150 -303,0 -542,-43 -716,-128 -173,-86 -317,-222 -432,-408 -114,-186 -171,-405 -171,-657 0,-358 114,-648 344,-869 228,-221 545,-332 949,-332 327,0 585,50 775,149 190,99 334,242 434,431 99,188 148,434 148,736l0 99zm-891 -419c-17,-170 -63,-292 -137,-366 -74,-73 -171,-110 -293,-110 -139,0 -251,56 -335,167 -53,69 -86,172 -101,309l866 0z"/>
  <path id="5" class="fil1" d="M13262 7784l818 0 0 372c122,-153 244,-261 369,-327 125,-65 277,-98 456,-98 242,0 431,72 569,216 136,145 205,368 205,670l0 1455 -882 0 0 -1259c0,-144 -27,-245 -79,-305 -53,-59 -128,-89 -223,-89 -105,0 -191,40 -257,120 -65,81 -98,225 -98,434l0 1099 -878 0 0 -2288z"/>
  <path class="fil2 str0" d="M25375 10292c-57,-386 18,-328 -300,-698l-1289 -1193 -916 677 -215 172 35 158 386 159 -69 403 -414 20 -144 230 151 364 -337 245 -298 -273 -262 60 -157 380 -404 -65 -20 -422 -223 -140 -364 151 -241 -344 266 -292 -56 -255 -377 -155 71 -410 413 -19 135 -216 -157 -375 346 -236 294 267 254 -57 156 -378 409 68 19 411 130 81 963 -739c-214,-184 -605,-599 -841,-705 -268,-120 -647,-81 -932,-232 -189,-100 -225,-65 -208,-206 5,-46 11,-81 18,-125 13,-78 20,-105 -42,-154l-190 -162c-219,-209 -232,-397 -192,-553 15,-50 28,-93 55,-131 430,253 470,277 714,412 29,1 210,-264 219,-296 -323,-189 -475,-274 -722,-403 91,-74 133,-105 213,-123 130,-31 287,-53 449,-57l172 4c296,20 582,114 719,350 196,339 157,733 336,1044 293,356 535,576 876,854l2499 -1930c60,-39 113,-30 153,-2 105,139 211,277 316,416 57,61 38,113 -4,148l-66 61 423 532 -312 251 -135 -167 152 -125 -133 -169 -155 116 -129 -153 -170 128 120 157 -138 110 137 169 147 -111 145 177 -319 241 -417 -520 -1507 1175c299,249 654,593 953,843 231,180 519,240 800,183 585,-118 988,746 1015,853 27,107 19,211 -28,213l-656 -382c-363,-76 -683,495 -422,774l712 414c42,24 11,45 -25,63 -278,139 -1259,282 -1385,-561zm-3696 -1241c259,45 433,292 388,552 -45,259 -292,433 -552,388 -259,-45 -433,-292 -388,-552 45,-260 292,-434 552,-388zm195 -2550c-26,0 -13,-4 -41,-7 6,-55 57,-57 107,-69 150,-36 361,149 292,272 -66,-19 -31,-117 -151,-187 -90,-53 -182,-8 -207,-9zm78 -159c-24,0 -16,-6 -47,-8 32,-57 41,-52 113,-69 92,-21 194,38 250,102 40,46 73,110 42,170 -33,-9 -39,-32 -51,-63 -20,-49 -59,-100 -106,-124 -105,-53 -174,-7 -201,-8zm79 -159c-24,-1 -26,-6 -48,-8 10,-88 204,-99 332,3 39,31 89,107 88,173 -1,22 -6,5 -14,34 -78,-23 -44,-216 -269,-221 -40,0 -56,19 -89,19zm3364 3626c69,-326 182,-517 460,-772 37,-34 69,-10 33,24 -211,202 -377,377 -458,779 -10,51 -46,20 -35,-31z"/>
  <path id="path4050" class="fil3" d="M17981 7019c0,0 -295,78 -338,95l-361 -422 -332 197 196 519c0,0 -222,223 -245,252l-524 -185 -189 337 429 352c-39,108 -69,222 -86,339l-546 102 4 387 548 90c0,-1 78,295 94,337l-421 361 197 333 519 -196c0,-1 218,218 252,245l-185 523 337 190 351 -430c0,0 306,82 340,87l102 546 386 -5 90 -547c0,0 295,-78 338,-95l361 421 332 -197 -196 -519c90,-75 172,-159 245,-250l524 184 189 -337 -429 -352c40,-109 69,-222 87,-340l545 -101 -4 -387 -548 -90c-20,-117 -52,-230 -94,-337l421 -362 -197 -332 -519 196c-76,-90 -160,-172 -251,-245l184 -523 -337 -190 -351 429c-109,-39 -223,-68 -340,-86l-102 -546 -386 4 -90 548zm326 2756c557,-6 1003,-459 997,-1011 -6,-552 -463,-995 -1019,-989 -557,7 -987,459 -981,1011 6,553 447,995 1003,989z"/>
  <path class="fil2 str0" d="M16107 5003l88 395 237 97 341 -217 284 294 -211 331 100 242 401 89 2 402 -398 89 -102 248 208 327 -285 294 -335 -215 -244 103 -88 395 -403 4 -90 -405 -240 -98 -327 208 -291 -294 208 -328 -97 -237 -391 -87 -1 -409 398 -88 94 -232 -215 -337 295 -287 330 209 236 -98 88 -393 408 -2zm-201 966c259,0 470,210 470,469 0,260 -211,470 -470,470 -259,0 -469,-210 -469,-470 0,-259 210,-469 469,-469z"/>
 </g>
</svg>
